<svg width="19" height="19" viewBox="0 0 19 19" fill="none" xmlns="http://www.w3.org/2000/svg">
<path d="M12.825 0C14.6614 0 16.15 1.48865 16.15 3.325C16.15 3.54045 16.1295 3.75111 16.0903 3.95515L16.0762 4.01794C17.7751 4.58347 19 6.18619 19 8.075C19 9.8554 17.9117 11.3816 16.364 12.0245L15.3323 18.2062C15.256 18.6643 14.8596 19 14.3953 19H4.60477C4.14038 19 3.74405 18.6643 3.66769 18.2062L2.6904 12.3443C1.18647 12.2585 0 11.0178 0 9.5C0 8.25797 0.794456 7.20157 1.90291 6.81115L1.9 6.65C1.9 3.50198 4.45198 0.95 7.6 0.95C8.47514 0.95 9.3043 1.14723 10.0453 1.49967C10.6385 0.597065 11.662 0 12.825 0ZM6.65 12.35H4.617L5.4093 17.1H6.65V12.35ZM10.45 12.35H8.55V17.1H10.45V12.35ZM14.382 12.35H12.35V17.1H13.5898L14.382 12.35ZM7.6 2.85C5.56491 2.85 3.90347 4.44977 3.80437 6.42911L3.79969 6.61574L3.80259 6.77689C3.81643 7.54421 3.36807 8.23897 2.67577 8.54687L2.53413 8.6032C2.15765 8.73582 1.9 9.09359 1.9 9.5C1.9 10.0247 2.32533 10.45 2.85 10.45H14.725C16.0367 10.45 17.1 9.38667 17.1 8.075C17.1 6.76333 16.0367 5.7 14.725 5.7C14.4061 5.7 14.0996 5.76193 13.817 5.88011L13.6504 5.95773C12.732 6.43085 11.614 6.08157 11.1206 5.1938L11.0544 5.06335C10.4382 3.72503 9.09891 2.85 7.6 2.85ZM12.825 1.9C12.3059 1.9 11.8517 2.1775 11.6025 2.59225C12.0901 3.07278 12.4907 3.63987 12.7803 4.26869C13.2018 4.05157 13.6646 3.90324 14.1539 3.83785C14.2163 3.679 14.25 3.50594 14.25 3.325C14.25 2.53799 13.612 1.9 12.825 1.9Z" fill="#666666"/>
</svg>
