<svg width="17" height="17" viewBox="0 0 17 17" fill="none" xmlns="http://www.w3.org/2000/svg">
<path d="M15.7418 5.13932L11.7964 4.56829C11.6667 4.54233 11.5628 4.46446 11.5109 4.36064L9.7459 0.778686C9.51229 0.285518 9.01912 0 8.47404 0C7.92896 0 7.4358 0.311475 7.20219 0.778686L5.43717 4.36064C5.38526 4.46446 5.28144 4.54233 5.15165 4.56829L1.20632 5.13932C0.661238 5.21719 0.219984 5.58058 0.0642473 6.0997C-0.0914897 6.61882 0.0382905 7.18986 0.427633 7.55325L3.28281 10.3565C3.36068 10.4344 3.41259 10.5642 3.38664 10.6939L2.71178 14.6393C2.63391 15.1844 2.84156 15.7035 3.28281 16.015C3.72407 16.3264 4.2951 16.3783 4.78827 16.1188L8.31831 14.2499C8.42213 14.198 8.55191 14.198 8.68169 14.2499L12.2117 16.1188C12.4194 16.2226 12.653 16.2745 12.8866 16.2745C13.1721 16.2745 13.4576 16.1966 13.7172 15.989C14.1584 15.6775 14.3661 15.1324 14.2882 14.6133L13.6134 10.668C13.5874 10.5382 13.6393 10.4084 13.7172 10.3306L16.5724 7.52729C16.9617 7.13795 17.0915 6.59287 16.9358 6.07374C16.78 5.55462 16.2609 5.21719 15.7418 5.13932ZM15.7937 6.82647L12.9385 9.62974C12.6011 9.96717 12.4453 10.4344 12.5232 10.8756L13.1981 14.821C13.224 15.0286 13.0942 15.1584 13.0423 15.1844C12.9904 15.2103 12.8347 15.3141 12.627 15.2103L9.09699 13.3415C8.88934 13.2376 8.65574 13.1857 8.44809 13.1857C8.24044 13.1857 7.98088 13.2376 7.79918 13.3415L4.26915 15.2103C4.08745 15.3141 3.93172 15.2363 3.8798 15.1844C3.82789 15.1324 3.69811 15.0286 3.72407 14.821L4.39893 10.8756C4.4768 10.4084 4.32106 9.94121 3.98363 9.62974L1.12845 6.82647C0.972713 6.67074 0.998669 6.515 1.02463 6.43713C1.05058 6.35926 1.12845 6.20352 1.3361 6.17757L5.28144 5.60653C5.74865 5.52866 6.13799 5.24315 6.34564 4.82785L8.11066 1.2459C8.21448 1.0642 8.37022 1.03825 8.44809 1.03825C8.52596 1.03825 8.68169 1.0642 8.78552 1.2459L10.5505 4.82785C10.7582 5.24315 11.1475 5.52866 11.6147 5.60653L15.5601 6.17757C15.7677 6.20352 15.8456 6.35926 15.8715 6.43713C15.9235 6.48904 15.9494 6.67074 15.7937 6.82647Z" fill="#212121"/>
</svg>
